<svg xmlns="http://www.w3.org/2000/svg" width="1200" height="630" viewBox="0 0 1200 630"><path fill="#fefbfb" d="M0 0h1200v630H0z"/><defs><clipPath id="a"><path d="M109 39h1048a4 4 0 0 1 4 4v496a4 4 0 0 1-4 4H109a4 4 0 0 1-4-4V43a4 4 0 0 1 4-4"/></clipPath></defs><g opacity=".9"><path fill="#ecebeb" d="M109 39h1048a4 4 0 0 1 4 4v496a4 4 0 0 1-4 4H109a4 4 0 0 1-4-4V43a4 4 0 0 1 4-4"/><path fill="none" stroke="#000" stroke-width="8" d="M106.172 40.172A4 4 0 0 1 109 39h1048a4 4 0 0 1 4 4v496a4 4 0 0 1-4 4H109a4 4 0 0 1-4-4V43a4 4 0 0 1 1.172-2.828" clip-path="url(#a)"/></g><defs><clipPath id="b"><path d="M76 63h1048a4 4 0 0 1 4 4v496a4 4 0 0 1-4 4H76a4 4 0 0 1-4-4V67a4 4 0 0 1 4-4"/></clipPath></defs><path fill="#fefbfb" d="M76 63h1048a4 4 0 0 1 4 4v496a4 4 0 0 1-4 4H76a4 4 0 0 1-4-4V67a4 4 0 0 1 4-4"/><path fill="none" stroke="#000" stroke-width="8" d="M73.172 64.172A4 4 0 0 1 76 63h1048a4 4 0 0 1 4 4v496a4 4 0 0 1-4 4H76a4 4 0 0 1-4-4V67a4 4 0 0 1 1.172-2.828" clip-path="url(#b)"/><clipPath id="c"><path d="M128 103h944v94H128z"/></clipPath><mask id="d"><path fill="#fff" d="M128 103h944v94H128z"/></mask><path d="M165.9 183h-32.1v-50.3h32.1v8.9h-21.3v11.5h20.6v8.8h-20.6v12.2h21.3v8.9Zm10.2 0v-8.3h11.4V138h-11.4v-8.3h22v45h11.4v8.3h-33.4Zm62.2-42q-3.6 0-5-1.4-1.4-1.5-1.4-3.6v-2.1q0-2.1 1.4-3.6 1.4-1.4 5-1.4t5 1.4q1.4 1.5 1.4 3.6v2.1q0 2.1-1.4 3.6-1.4 1.4-5 1.4Zm-17.1 42v-8.3H233v-20.6h-11.8v-8.3h22.4v28.9h11v8.3h-33.4Zm49.3 0h-11.2l13.9-18.9-13-18.3h12.2l3.9 6 3 4.8h.6l3.1-4.8 4-6h11.2l-13 17.7 13.9 19.5h-12.2l-4.7-7-3.2-5h-.6l-3.2 5-4.7 7Zm54.2-42q-3.6 0-5-1.4-1.4-1.5-1.4-3.6v-2.1q0-2.1 1.4-3.6 1.4-1.4 5-1.4t5 1.4q1.4 1.5 1.4 3.6v2.1q0 2.1-1.4 3.6-1.4 1.4-5 1.4Zm-17.1 42v-8.3h11.8v-20.6h-11.8v-8.3H330v28.9h11v8.3h-33.4Zm41.7 0v-8.3h8.6v-20.6h-8.6v-8.3h19.3v10.5h.5q.5-2 1.4-3.9.9-1.9 2.3-3.4t3.4-2.3q2-.9 4.7-.9h3.6v9.8h-8q-3.9 0-5.9 2.3-2 2.4-2 5.8v11h12.2v8.3h-31.5Zm119 0h-32.1v-50.3h32.1v8.9H447v11.5h20.6v8.8H447v12.2h21.3v8.9Zm18.2 0h-11.2l13.9-18.9-13-18.3h12.2l3.9 6 3 4.8h.6l3.1-4.8 4-6h11.2l-13 17.7 13.9 19.5h-12.2l-4.7-7-3.2-5h-.6l-3.2 5-4.7 7Zm34.3-50.3h10.8v31.8q0 2.4.1 4.4.2 2 .9 3.3.7 1.4 2.1 2.1 1.3.8 3.7.8 2.4 0 3.7-.8 1.4-.7 2.1-2.1.7-1.3.9-3.3.1-2 .1-4.4v-31.8H556v30.4q0 5.2-.6 9.1-.7 3.8-2.7 6.4-1.9 2.6-5.4 3.9-3.4 1.3-8.9 1.3t-8.9-1.3q-3.5-1.3-5.4-3.9-2-2.6-2.7-6.4-.6-3.9-.6-9.1v-30.4Zm54.5 50.3h-10.6v-37.2h10.6v6.8h.5q.6-1.6 1.6-3 .9-1.4 2.2-2.4 1.4-1 3.1-1.7 1.8-.6 4-.6 2.7 0 4.9.9t3.8 2.7q1.6 1.8 2.5 4.4.9 2.6.9 6V183h-10.6v-22.7q0-7.2-6.3-7.2-1.2 0-2.4.4-1.2.3-2.1 1-1 .7-1.5 1.7-.6 1-.6 2.3V183Zm51.8-42q-3.6 0-5-1.4-1.4-1.5-1.4-3.6v-2.1q0-2.1 1.4-3.6 1.4-1.4 5-1.4t5 1.4q1.4 1.5 1.4 3.6v2.1q0 2.1-1.4 3.6-1.4 1.4-5 1.4ZM610 183v-8.3h11.8v-20.6H610v-8.3h22.4v28.9h11v8.3H610Zm74.6 0h-13.7q-5.8 0-8.6-3.1-2.8-3-2.8-7.7v-18.1h-10.1v-8.3h6.6q2.4 0 3.4-.9 1-1 1-3.5v-8.7h9.8v13.1h14.4v8.3h-14.4v20.6h14.4v8.3Zm26.6.8q-4 0-5.8-1.7-1.8-1.8-1.8-4.3v-2.5q0-2.4 1.8-4.2 1.8-1.8 5.8-1.8t5.8 1.8q1.8 1.8 1.8 4.2v2.5q0 2.5-1.8 4.3-1.8 1.7-5.8 1.7Zm26.2-.8v-50.3h16.2q10.2 0 15.1 6.5t4.9 18.6q0 12.2-4.9 18.7t-15.1 6.5h-16.2Zm10.7-8.5h4.8q4.8 0 7-3.1 2.3-3.1 2.3-9v-9.2q0-5.8-2.3-8.9-2.2-3.1-7-3.1h-4.8v33.3Zm49.5 9.3q-4.3 0-7.8-1.3-3.4-1.3-5.8-3.9-2.5-2.5-3.8-6.1-1.2-3.6-1.2-8.1 0-4.6 1.2-8.2 1.3-3.6 3.8-6.1 2.4-2.5 5.8-3.8 3.5-1.4 7.8-1.4t7.8 1.4q3.4 1.3 5.8 3.8 2.5 2.5 3.8 6.1 1.2 3.6 1.2 8.2 0 4.5-1.2 8.1-1.3 3.6-3.8 6.1-2.4 2.6-5.8 3.9-3.5 1.3-7.8 1.3Zm0-7.9q3.6 0 5.6-2.2 2-2.3 2-6.4v-5.9q0-4.1-2-6.3t-5.6-2.2q-3.6 0-5.6 2.2-2 2.2-2 6.3v5.9q0 4.1 2 6.4 2 2.2 5.6 2.2Zm44.7 7.9q-4.4 0-7.9-1.3t-5.9-3.9q-2.4-2.5-3.7-6.1-1.3-3.6-1.3-8.1 0-4.6 1.3-8.2 1.3-3.6 3.7-6.1 2.4-2.5 5.9-3.8 3.5-1.4 7.8-1.4 6.2 0 9.9 2.5t5.6 6.6l-8.2 4.5q-1-2.2-2.6-3.6-1.6-1.5-4.7-1.5-3.6 0-5.6 2.2-2 2.1-2 5.8v6q0 3.7 2 5.8 2 2.1 5.8 2.1 3.1 0 4.8-1.4 1.8-1.5 3-3.8l8.1 4.6q-2 4.1-5.9 6.6-3.8 2.5-10.1 2.5Zm61.6-42.2h-14.5V183h-10.8v-41.4h-14.5v-8.9h39.8v8.9Zm24.3 42.2q-9.4 0-14.2-5.2-4.8-5.2-4.8-14.1 0-4.5 1.3-8.2 1.2-3.6 3.6-6.1 2.3-2.6 5.6-3.9 3.4-1.4 7.6-1.4 4.1 0 7.5 1.4 3.3 1.3 5.6 3.7 2.3 2.5 3.5 6 1.3 3.5 1.3 7.8v3.2h-25.4v.6q0 3.6 2.2 5.8 2.2 2.2 6.6 2.2 3.3 0 5.7-1.3 2.3-1.2 4.1-3.3l5.7 6.3q-2.1 2.6-6 4.6-3.9 1.9-9.9 1.9Zm-.9-31.2q-3.4 0-5.5 2.1-2 2.1-2 5.7v.6h15v-.6q0-3.7-2-5.7-2-2.1-5.5-2.1Zm42.7 31.2q-6.2 0-10.8-1.9-4.6-1.8-6.9-5.1l6-5.5q2.2 2.4 5.1 3.7 2.9 1.3 6.6 1.3 3.2 0 5-.9 1.8-1 1.8-3 0-1.6-1.2-2.2-1.2-.6-3.4-1l-6-.9q-2.5-.4-4.7-1.2-2.1-.7-3.7-2t-2.5-3.2q-1-1.8-1-4.5 0-5.8 4.5-9.2 4.5-3.3 12.5-3.3 5.5 0 9.4 1.5 3.8 1.5 6.1 4.2l-5.3 6.1q-1.7-1.8-4.3-3.1-2.6-1.2-6.2-1.2-6.2 0-6.2 3.8 0 1.6 1.2 2.2 1.2.6 3.4 1l5.9.9q2.5.4 4.7 1.2 2.1.7 3.8 2 1.6 1.3 2.5 3.2.9 1.9.9 4.5 0 5.8-4.5 9.2-4.5 3.4-12.7 3.4Zm60.2-.8h-13.7q-5.8 0-8.6-3.1-2.8-3-2.8-7.7v-18.1H995v-8.3h6.6q2.4 0 3.4-.9 1-1 1-3.5v-8.7h9.8v13.1h14.4v8.3h-14.4v20.6h14.4v8.3Z" clip-path="url(#c)" mask="url(#d)"/><path d="M130.7 520.3v-20.7h2.2v8.6h.1q1.4-2.7 4.5-2.7 2.6 0 4.1 2 1.5 2 1.5 5.5 0 3.6-1.5 5.6-1.5 2-4.1 2-3.1 0-4.5-2.7h-.1v2.4h-2.2Zm5.9-1.7q2 0 3-1.2 1.1-1.2 1.1-3.1v-2.5q0-1.9-1.1-3.1-1-1.2-3-1.2-.8 0-1.4.2-.7.2-1.2.5-.5.4-.8 1-.3.5-.3 1.2v5.3q0 .7.3 1.2.3.6.8.9.5.4 1.2.6.6.2 1.4.2Zm18.8-6.7 2.5-6.1h2.2l-7.2 17.6q-.2.7-.5 1.1-.3.5-.7.8-.5.3-1 .4-.6.2-1.4.2h-2.2V524h3.4l1.6-4-5.8-14.2h2.3l2.4 6.1 2.2 5.5h.1l2.1-5.5Z"/><clipPath id="e"><path d="M178 489h269v36H178z"/></clipPath><mask id="f"><path fill="#fff" d="M178 489h269v36H178z"/></mask><path d="M194.7 520.1h-4.5l-1.3-4.7h-5.3l-1.2 4.7h-4.3l5.3-19.6h6l5.3 19.6Zm-6.4-8.1-1.9-7.4h-.2l-1.9 7.4h4Zm12.5 8.1h-4.2v-14.5h4.2v2.7h.1l.6-1.2q.4-.5.9-.9t1.2-.7q.7-.2 1.6-.2 1 0 1.9.4.9.3 1.5 1t.9 1.7q.4 1 .4 2.3v9.4h-4.2v-8.8q0-2.8-2.4-2.8-.5 0-.9.1-.5.2-.9.4-.3.3-.5.7-.2.4-.2.9v9.5Zm21.8 0v-2.6h-.2q-.6 1.3-1.5 2.1-1 .8-2.8.8-1.2 0-2.2-.4-1-.5-1.7-1.4-.7-.9-1.1-2.3-.4-1.5-.4-3.4 0-2 .4-3.4t1.1-2.4q.7-.9 1.7-1.3 1-.5 2.2-.5.9 0 1.6.2l1.2.6q.5.4.9 1 .3.5.6 1.2h.2v-8.9h4.1v20.7h-4.1Zm-2.7-2.9q1.1 0 1.9-.5.8-.6.8-1.7v-4.3q0-1.1-.8-1.6-.8-.6-1.9-.6-1.4 0-2.1.9-.8.8-.8 2.3v2.3q0 1.5.8 2.4.7.8 2.1.8Zm10.6 2.9v-3.2h3.3v-8h-3.3v-3.3h7.4v4.1h.2q.2-.8.6-1.5.3-.7.9-1.3.5-.6 1.3-.9.8-.4 1.9-.4h1.3v3.9h-3q-1.6 0-2.4.9-.8.9-.8 2.2v4.3h4.8v3.2h-12.2Zm23.5.3q-3.6 0-5.5-2t-1.9-5.5q0-1.7.5-3.2.5-1.4 1.4-2.4.9-1 2.2-1.5 1.3-.5 2.9-.5 1.7 0 2.9.5 1.3.5 2.2 1.5.9.9 1.4 2.3.5 1.4.5 3v1.3h-9.9v.2q0 1.4.9 2.3.9.8 2.5.8 1.3 0 2.2-.5 1-.4 1.6-1.3l2.3 2.5q-.9 1-2.4 1.8-1.5.7-3.8.7Zm-.3-12.1q-1.4 0-2.2.8-.8.8-.8 2.2v.3h5.8v-.3q0-1.4-.7-2.2-.8-.8-2.1-.8Zm10.2 11.8-1.7-14.5h3.4l1.1 11.7h.3l1.7-11.7h3.6l1.7 11.7h.3l1-11.7h3.3l-1.7 14.5H272l-1.5-10h-.2l-1.5 10h-4.9Zm35.3-19.6h10.7v14.1q0 1.3-.5 2.4-.4 1.1-1.3 1.9-.8.7-2 1.1-1.2.4-2.7.4-3 0-4.6-1.5-1.7-1.5-2.1-3.9l3.9-.8q.3 1.2.9 2 .6.8 1.9.8 1 0 1.7-.7.6-.7.6-2.1V504h-6.5v-3.5Zm21.6 19.9q-1.7 0-3-.5-1.4-.5-2.3-1.5-.9-1-1.4-2.4-.6-1.4-.6-3.1 0-1.8.6-3.2.5-1.4 1.4-2.4.9-1 2.3-1.5 1.3-.5 3-.5t3 .5q1.4.5 2.3 1.5.9 1 1.4 2.4.6 1.4.6 3.2 0 1.7-.6 3.1-.5 1.4-1.4 2.4-.9 1-2.3 1.5-1.3.5-3 .5Zm0-3.1q1.4 0 2.2-.8.8-.9.8-2.5v-2.3q0-1.6-.8-2.4-.8-.9-2.2-.9-1.4 0-2.2.9-.8.8-.8 2.4v2.3q0 1.6.8 2.5.8.8 2.2.8Zm10.5 2.8v-3.2h3.3v-8h-3.3v-3.3h7.4v4.1h.2q.2-.8.6-1.5.3-.7.9-1.3.5-.6 1.3-.9.8-.4 1.9-.4h1.3v3.9h-3q-1.6 0-2.4.9-.8.9-.8 2.2v4.3h4.8v3.2h-12.2Zm31 1.4q0 2.3-1.9 3.4t-6.1 1.1q-2.1 0-3.4-.2-1.3-.2-2.1-.7-.8-.4-1.2-1.1-.3-.6-.3-1.3 0-1.2.7-1.9.8-.6 2.1-.9v-.2q-.9-.3-1.5-.8-.5-.5-.5-1.5t.7-1.5q.7-.5 1.9-.8v-.2q-1.3-.6-2-1.7t-.7-2.7q0-1.3.4-2.3.5-.9 1.3-1.6.8-.6 2-1 1.1-.3 2.5-.3t2.6.3v-.8q0-.8.6-1.4.6-.5 1.6-.5h2.5v3h-3.4v.2q1.1.7 1.8 1.7.7 1.1.7 2.7 0 1.2-.5 2.2-.4.9-1.3 1.6-.8.6-2 1-1.1.3-2.6.3-.6 0-1.2-.1-.6 0-1.1-.2-.3.2-.5.5-.2.2-.2.6 0 .3.1.5.2.2.5.3.3.1.7.1.4.1.8.1h3.3q1.5 0 2.6.3t1.8.9q.7.5 1 1.3.3.7.3 1.6Zm-3.9.4q0-.6-.4-.9-.5-.3-1.8-.3h-4.9q-.6.4-.6 1.1 0 .7.6 1.1.6.5 2 .5h2.4q1.4 0 2.1-.4.6-.4.6-1.1Zm-4.2-8.9q1.3 0 1.9-.6.5-.7.5-1.6v-.7q0-.9-.5-1.5-.6-.7-1.9-.7-1.2 0-1.8.7-.5.6-.5 1.5v.7q0 .9.5 1.6.6.6 1.8.6Zm17.4 7.4q-3.6 0-5.5-2t-1.9-5.5q0-1.7.5-3.2.5-1.4 1.4-2.4.9-1 2.2-1.5 1.3-.5 2.9-.5 1.7 0 2.9.5 1.3.5 2.2 1.5.9.9 1.4 2.3.5 1.4.5 3v1.3h-9.9v.2q0 1.4.9 2.3.9.8 2.5.8 1.3 0 2.2-.5 1-.4 1.6-1.3l2.3 2.5q-.9 1-2.4 1.8-1.5.7-3.8.7Zm-.3-12.1q-1.4 0-2.2.8-.8.8-.8 2.2v.3h5.8v-.3q0-1.4-.7-2.2-.8-.8-2.1-.8Zm14.3 11.8h-4.2v-14.5h4.2v2.7h.1l.6-1.2q.4-.5.9-.9t1.2-.7q.7-.2 1.6-.2 1 0 1.9.4.9.3 1.5 1t.9 1.7q.4 1 .4 2.3v9.4h-4.2v-8.8q0-2.8-2.4-2.8-.5 0-.9.1-.5.2-.9.4-.3.3-.5.7-.2.4-.2.9v9.5Zm19 .3q-2.4 0-4.2-.7-1.7-.7-2.6-2l2.3-2.1q.8.9 2 1.4 1.1.5 2.6.5 1.2 0 1.9-.4.7-.3.7-1.1 0-.6-.5-.9-.5-.2-1.3-.4l-2.3-.3q-1-.2-1.8-.5-.9-.2-1.5-.8-.6-.5-1-1.2-.3-.7-.3-1.7 0-2.3 1.7-3.6 1.7-1.3 4.9-1.3 2.1 0 3.6.6t2.4 1.6l-2.1 2.4q-.6-.7-1.6-1.2t-2.5-.5q-2.4 0-2.4 1.5 0 .6.5.9.5.2 1.3.3l2.3.4q1 .1 1.8.4.9.3 1.5.8t1 1.3q.4.7.4 1.7 0 2.3-1.8 3.6-1.7 1.3-5 1.3Zm17.4 0q-3.6 0-5.5-2t-1.9-5.5q0-1.7.5-3.2.5-1.4 1.4-2.4.9-1 2.2-1.5 1.3-.5 2.9-.5 1.7 0 2.9.5 1.3.5 2.2 1.5.9.9 1.4 2.3.5 1.4.5 3v1.3h-9.9v.2q0 1.4.9 2.3.9.8 2.5.8 1.3 0 2.2-.5 1-.4 1.6-1.3l2.3 2.5q-.9 1-2.4 1.8-1.5.7-3.8.7Zm-.3-12.1q-1.4 0-2.2.8-.8.8-.8 2.2v.3h5.8v-.3q0-1.4-.7-2.2-.8-.8-2.1-.8Zm14.3 11.8h-4.2v-14.5h4.2v2.7h.1l.6-1.2q.4-.5.9-.9t1.2-.7q.7-.2 1.6-.2 1 0 1.9.4.9.3 1.5 1t.9 1.7q.4 1 .4 2.3v9.4h-4.2v-8.8q0-2.8-2.4-2.8-.5 0-.9.1-.5.2-.9.4-.3.3-.5.7-.2.4-.2.9v9.5Z" clip-path="url(#e)" mask="url(#f)"/><clipPath id="g"><path d="M802 489h269v36H802z"/></clipPath><mask id="h"><path fill="#fff" d="M802 489h269v36H802z"/></mask><path d="M818.7 520.1h-4.5l-1.3-4.7h-5.3l-1.2 4.7h-4.3l5.3-19.6h6l5.3 19.6Zm-6.4-8.1-1.9-7.4h-.2l-1.9 7.4h4Zm12.5 8.1h-4.2v-14.5h4.2v2.7h.1l.6-1.2q.4-.5.9-.9t1.2-.7q.7-.2 1.6-.2 1 0 1.9.4.9.3 1.5 1t.9 1.7q.4 1 .4 2.3v9.4h-4.2v-8.8q0-2.8-2.4-2.8-.5 0-.9.1-.5.2-.9.4-.3.3-.5.7-.2.4-.2.9v9.5Zm21.8 0v-2.6h-.2q-.6 1.3-1.5 2.1-1 .8-2.8.8-1.2 0-2.2-.4-1-.5-1.7-1.4-.7-.9-1.1-2.3-.4-1.5-.4-3.4 0-2 .4-3.4t1.1-2.4q.7-.9 1.7-1.3 1-.5 2.2-.5.9 0 1.6.2l1.2.6q.5.4.8 1 .4.5.7 1.2h.2v-8.9h4.1v20.7h-4.1Zm-2.7-2.9q1.1 0 1.9-.5.8-.6.8-1.7v-4.3q0-1.1-.8-1.6-.8-.6-1.9-.6-1.4 0-2.1.9-.8.8-.8 2.3v2.3q0 1.5.8 2.4.7.8 2.1.8Zm10.6 2.9v-3.2h3.3v-8h-3.3v-3.3h7.4v4.1h.2q.2-.8.6-1.5.3-.7.9-1.3.5-.6 1.3-.9.8-.4 1.9-.4h1.3v3.9h-3q-1.6 0-2.4.9-.8.9-.8 2.2v4.3h4.8v3.2h-12.2Zm23.5.3q-3.6 0-5.5-2t-1.9-5.5q0-1.7.5-3.2.5-1.4 1.4-2.4.9-1 2.2-1.5 1.3-.5 2.9-.5 1.7 0 2.9.5 1.3.5 2.2 1.5.9.9 1.4 2.3.5 1.4.5 3v1.3h-9.9v.2q0 1.4.9 2.3.9.8 2.5.8 1.3 0 2.2-.5 1-.4 1.6-1.3l2.3 2.5q-.9 1-2.4 1.8-1.5.7-3.8.7Zm-.3-12.1q-1.4 0-2.2.8-.8.8-.8 2.2v.3h5.8v-.3q0-1.4-.7-2.2-.8-.8-2.1-.8Zm10.2 11.8-1.7-14.5h3.4l1.1 11.7h.3l1.7-11.7h3.6l1.7 11.7h.3l1-11.7h3.3l-1.7 14.5H896l-1.5-10h-.2l-1.5 10h-4.9Zm35.3-19.6h10.7v14.1q0 1.3-.5 2.4-.4 1.1-1.3 1.9-.8.7-2 1.1-1.2.4-2.7.4-3 0-4.6-1.5-1.7-1.5-2.1-3.9l3.9-.8q.3 1.2.9 2 .6.8 1.9.8 1 0 1.7-.7.6-.7.6-2.1V504h-6.5v-3.5Zm21.6 19.9q-1.7 0-3-.5-1.4-.5-2.3-1.5-.9-1-1.4-2.4-.6-1.4-.6-3.1 0-1.8.6-3.2.5-1.4 1.4-2.4.9-1 2.3-1.5 1.3-.5 3-.5t3 .5q1.4.5 2.3 1.5.9 1 1.4 2.4.6 1.4.6 3.2 0 1.7-.6 3.1-.5 1.4-1.4 2.4-.9 1-2.3 1.5-1.3.5-3 .5Zm0-3.1q1.4 0 2.2-.8.8-.9.8-2.5v-2.3q0-1.6-.8-2.4-.8-.9-2.2-.9-1.4 0-2.2.9-.8.8-.8 2.4v2.3q0 1.6.8 2.5.8.8 2.2.8Zm10.5 2.8v-3.2h3.3v-8h-3.3v-3.3h7.4v4.1h.2q.2-.8.6-1.5.3-.7.9-1.3.5-.6 1.3-.9.8-.4 1.9-.4h1.3v3.9h-3q-1.6 0-2.4.9-.8.9-.8 2.2v4.3h4.8v3.2h-12.2Zm31 1.4q0 2.3-1.9 3.4t-6.1 1.1q-2.1 0-3.4-.2-1.3-.2-2.1-.7-.8-.4-1.2-1.1-.3-.6-.3-1.3 0-1.2.7-1.9.8-.6 2.1-.9v-.2q-.9-.3-1.5-.8-.5-.5-.5-1.5t.7-1.5q.7-.5 1.9-.8v-.2q-1.3-.6-2-1.7t-.7-2.7q0-1.3.4-2.3.5-.9 1.3-1.6.8-.6 2-1 1.1-.3 2.5-.3t2.6.3v-.8q0-.8.6-1.4.6-.5 1.6-.5h2.5v3h-3.4v.2q1.1.7 1.8 1.7.7 1.1.7 2.7 0 1.2-.5 2.2-.4.9-1.3 1.6-.8.6-2 1-1.1.3-2.6.3-.6 0-1.2-.1-.6 0-1.1-.2-.3.2-.5.5-.2.2-.2.6 0 .3.1.5.2.2.5.3.3.1.7.1.4.1.8.1h3.3q1.5 0 2.6.3t1.8.9q.7.5 1 1.3.3.7.3 1.6Zm-3.9.4q0-.6-.4-.9-.5-.3-1.8-.3h-4.9q-.6.4-.6 1.1 0 .7.6 1.1.6.5 2 .5h2.4q1.4 0 2.1-.4.6-.4.6-1.1Zm-4.2-8.9q1.3 0 1.9-.6.5-.7.5-1.6v-.7q0-.9-.5-1.5-.6-.7-1.9-.7-1.2 0-1.8.7-.5.6-.5 1.5v.7q0 .9.5 1.6.6.6 1.8.6Zm17.4 7.4q-3.6 0-5.5-2t-1.9-5.5q0-1.7.5-3.2.5-1.4 1.4-2.4.9-1 2.2-1.5 1.3-.5 2.9-.5 1.7 0 2.9.5 1.3.5 2.2 1.5.9.9 1.4 2.3.5 1.4.5 3v1.3h-9.9v.2q0 1.4.9 2.3.9.8 2.5.8 1.3 0 2.2-.5 1-.4 1.6-1.3l2.3 2.5q-.9 1-2.4 1.8-1.5.7-3.8.7Zm-.3-12.1q-1.4 0-2.2.8-.8.8-.8 2.2v.3h5.8v-.3q0-1.4-.7-2.2-.8-.8-2.1-.8Zm14.3 11.8h-4.2v-14.5h4.2v2.7h.1l.6-1.2q.4-.5.9-.9t1.2-.7q.7-.2 1.6-.2 1 0 1.9.4.9.3 1.5 1t.9 1.7q.4 1 .4 2.3v9.4h-4.2v-8.8q0-2.8-2.4-2.8-.5 0-.9.1-.5.2-.9.4-.3.3-.5.7-.2.4-.2.9v9.5Zm19 .3q-2.4 0-4.2-.7-1.7-.7-2.6-2l2.3-2.1q.8.9 2 1.4 1.1.5 2.6.5 1.2 0 1.9-.4.7-.3.7-1.1 0-.6-.5-.9-.5-.2-1.3-.4l-2.3-.3q-1-.2-1.8-.5-.9-.2-1.5-.8-.6-.5-1-1.2-.3-.7-.3-1.7 0-2.3 1.7-3.6 1.7-1.3 4.9-1.3 2.1 0 3.6.6t2.4 1.6l-2.1 2.4q-.6-.7-1.6-1.2t-2.5-.5q-2.4 0-2.4 1.5 0 .6.5.9.5.2 1.3.3l2.3.4q1 .1 1.8.4.9.3 1.5.8t1 1.3q.4.7.4 1.7 0 2.3-1.8 3.6-1.7 1.3-5 1.3Zm17.4 0q-3.6 0-5.5-2t-1.9-5.5q0-1.7.5-3.2.5-1.4 1.4-2.4.9-1 2.2-1.5 1.3-.5 2.9-.5 1.7 0 2.9.5 1.3.5 2.2 1.5.9.9 1.4 2.3.5 1.4.5 3v1.3h-9.9v.2q0 1.4.9 2.3.9.8 2.5.8 1.3 0 2.2-.5 1-.4 1.6-1.3l2.3 2.5q-.9 1-2.4 1.8-1.5.7-3.8.7Zm-.3-12.1q-1.4 0-2.2.8-.8.8-.8 2.2v.3h5.8v-.3q0-1.4-.7-2.2-.8-.8-2.1-.8Zm14.3 11.8h-4.2v-14.5h4.2v2.7h.1l.6-1.2q.4-.5.9-.9t1.2-.7q.7-.2 1.6-.2 1 0 1.9.4.9.3 1.5 1t.9 1.7q.4 1 .4 2.3v9.4h-4.2v-8.8q0-2.8-2.4-2.8-.5 0-.9.1-.5.2-.9.4-.3.3-.5.7-.2.4-.2.9v9.5Z" clip-path="url(#g)" mask="url(#h)"/></svg>